# Blender v2.78 (sub 0) OBJ File: 'a.blend'
# www.blender.org
mtllib l1.mtl
o l1_Mesh.001
v -0.053222 -0.420039 0.139664
v -0.050391 0.517163 0.138776
v 0.071897 0.516792 0.136769
v 0.069065 -0.420410 0.137657
v -0.057734 -0.420285 -0.135139
v -0.054902 0.516917 -0.136027
v 0.067385 0.516545 -0.138035
v 0.064553 -0.420657 -0.137147
v -0.057734 -0.420285 -0.135139
v -0.053222 -0.420039 0.139664
v -0.054902 0.516917 -0.136027
v -0.050391 0.517163 0.138776
v 0.067385 0.516545 -0.138035
v 0.071897 0.516792 0.136769
v 0.064553 -0.420657 -0.137147
v 0.069065 -0.420410 0.137657
vt 0.0001 0.3845
vt 0.6052 0.3056
vt 0.6052 0.3845
vt 0.0001 0.3056
vt 0.6052 0.4637
vt 0.0001 0.3847
vt 0.6052 0.3847
vt 0.0001 0.4637
vt 0.4155 0.1543
vt 0.5798 0.1799
vt 0.9999 0.3054
vt 0.0482 0.3054
vt 0.5845 0.1512
vt 0.9518 0.0001
vt 0.4202 0.1255
vt 0.0001 0.0001
vn 0.0164 0.0009 0.9999
vn -0.0164 -0.0009 -0.9999
vn -0.7091 -0.7049 0.0123
vn -0.7049 0.7093 0.0109
vn 0.7091 0.7049 -0.0123
vn 0.7049 -0.7093 -0.0109
usemtl æè´¨.002
f 1/1/1 3/2/1 2/3/1
f 1/1/1 4/4/1 3/2/1
f 7/5/2 5/6/2 6/7/2
f 8/8/2 5/6/2 7/5/2
f 10/9/3 12/10/4 11/11/4 9/12/3
f 12/10/4 14/13/5 13/14/5 11/11/4
f 14/13/5 16/15/6 15/16/6 13/14/5
f 16/15/6 10/9/3 9/12/3 15/16/6
