# Blender v2.78 (sub 0) OBJ File: 'a.blend'
# www.blender.org
mtllib l2.mtl
o 文本_Mesh.002
v 0.055201 -0.470230 -0.115962
v 0.063238 0.485702 -0.119438
v -0.061510 0.486750 -0.119442
v -0.069547 -0.469181 -0.115966
v 0.055201 -0.469210 0.164380
v 0.063238 0.486721 0.160903
v -0.061510 0.487770 0.160899
v -0.069547 -0.468161 0.164376
v 0.055201 -0.469210 0.164380
v 0.055201 -0.470230 -0.115962
v 0.063238 0.486721 0.160903
v 0.063238 0.485702 -0.119438
v -0.061510 0.487770 0.160899
v -0.061510 0.486750 -0.119442
v -0.069547 -0.468161 0.164376
v -0.069547 -0.469181 -0.115966
vt 0.0001 0.3845
vt 0.6052 0.3056
vt 0.6052 0.3845
vt 0.0001 0.3056
vt 0.6052 0.4637
vt 0.0001 0.3847
vt 0.6052 0.3847
vt 0.0001 0.4637
vt 0.4155 0.1543
vt 0.5798 0.1799
vt 0.9999 0.3054
vt 0.0482 0.3054
vt 0.5845 0.1512
vt 0.9518 0.0001
vt 0.4202 0.1255
vt 0.0001 0.0001
vn 0.0000 -0.0036 -1.0000
vn -0.0000 0.0036 1.0000
vn 0.7011 -0.7130 0.0026
vn 0.7130 0.7011 -0.0025
vn -0.7011 0.7130 -0.0026
vn -0.7130 -0.7011 0.0025
usemtl 材质.003
f 1/1/1 3/2/1 2/3/1
f 1/1/1 4/4/1 3/2/1
f 7/5/2 5/6/2 6/7/2
f 8/8/2 5/6/2 7/5/2
f 10/9/3 12/10/4 11/11/4 9/12/3
f 12/10/4 14/13/5 13/14/5 11/11/4
f 14/13/5 16/15/6 15/16/6 13/14/5
f 16/15/6 10/9/3 9/12/3 15/16/6
