# Blender v2.78 (sub 0) OBJ File: 'a.blend'
# www.blender.org
mtllib t.mtl
o 文本.003_Mesh.005
v 0.075976 0.491710 0.133439
v 0.075976 -0.494429 0.137818
v -0.086722 -0.494429 0.137818
v -0.086722 0.491710 0.133439
v -0.478525 0.491710 0.133439
v -0.478525 0.637805 0.132791
v 0.467779 0.637805 0.132791
v 0.467779 0.491710 0.133439
v 0.075976 0.490236 -0.198594
v 0.075976 -0.495903 -0.194215
v -0.086722 -0.495903 -0.194215
v -0.086722 0.490236 -0.198594
v -0.478525 0.490236 -0.198594
v -0.478525 0.636331 -0.199243
v 0.467779 0.636331 -0.199243
v 0.467779 0.490236 -0.198594
v 0.075976 0.490236 -0.198594
v 0.075976 0.491710 0.133439
v 0.075976 -0.495903 -0.194215
v 0.075976 -0.494429 0.137818
v -0.086722 -0.495903 -0.194215
v -0.086722 -0.494429 0.137818
v -0.086722 0.490236 -0.198594
v -0.086722 0.491710 0.133439
v -0.478525 0.490236 -0.198594
v -0.478525 0.491710 0.133439
v -0.478525 0.636331 -0.199243
v -0.478525 0.637805 0.132791
v 0.467779 0.636331 -0.199243
v 0.467779 0.637805 0.132791
v 0.467779 0.490236 -0.198594
v 0.467779 0.491710 0.133439
vt 0.9999 0.0503
vt 0.6751 0.0001
vt 0.9999 0.0001
vt 0.6751 0.0503
vt 0.8375 0.0517
vt 0.8375 0.5438
vt 0.7563 0.0517
vt 0.7563 0.5438
vt 0.6332 0.8908
vt 0.0607 0.9643
vt 0.0629 0.8762
vt 0.6310 0.9789
vt 0.0605 0.9742
vt 0.0605 0.9842
vt 0.0001 0.9742
vt 0.0001 0.9842
vt 0.1740 0.5275
vt 0.0001 0.1036
vt 0.1581 0.1451
vt 0.3643 0.4863
vt 0.0441 0.0001
vt 0.1769 0.0974
vt 0.5017 0.0001
vt 0.4173 0.1367
vt 0.6449 0.1995
vt 0.4752 0.2740
vt 0.6748 0.2781
vt 0.4992 0.3140
vt 0.4765 0.8711
vt 0.3874 0.6230
vt 0.2812 0.8760
vt 0.3273 0.6111
vn 0.0000 0.0044 1.0000
vn 0.0000 0.0000 1.0000
vn 0.0000 0.0000 -1.0000
vn 0.0000 -0.0044 -1.0000
vn 0.7071 -0.7071 0.0031
vn -0.7071 -0.7071 0.0031
vn -0.7071 0.7071 -0.0031
vn 0.7071 0.7071 -0.0031
usemtl 材质.006
s off
f 5/1/1 7/2/1 6/3/1
f 5/1/1 8/4/1 7/2/1
f 4/5/2 8/4/2 5/1/2
f 3/6/1 1/7/1 4/5/1
f 1/7/3 8/4/3 4/5/3
f 3/6/1 2/8/1 1/7/1
f 15/9/4 13/10/4 14/11/4
f 16/12/4 13/10/4 15/9/4
f 16/12/3 12/13/3 13/10/3
f 9/14/4 11/15/4 12/13/4
f 16/12/2 9/14/2 12/13/2
f 10/16/4 11/15/4 9/14/4
s 1
f 18/17/5 20/18/5 19/19/5 17/20/5
f 20/18/5 22/21/6 21/22/6 19/19/5
f 22/21/6 24/23/6 23/24/6 21/22/6
f 24/23/6 26/25/6 25/26/6 23/24/6
f 26/25/6 28/27/7 27/28/7 25/26/6
f 28/27/7 30/29/8 29/30/8 27/28/7
f 30/29/8 32/31/5 31/32/5 29/30/8
f 32/31/5 18/17/5 17/20/5 31/32/5
